<svg width="37" height="34" viewBox="0 0 37 34" fill="none" xmlns="http://www.w3.org/2000/svg">
<path opacity="0.4" d="M36.9992 9.66161V24.3204C37.008 26.8029 36.0318 29.1869 34.2858 30.9469C32.5399 32.7069 30.1676 33.6984 27.6919 33.7028H9.3567C6.87666 33.7071 4.4967 32.7223 2.74151 30.9654C0.986313 29.2085 -3.84355e-06 26.8238 0 24.3369V9.66161C0.00135059 8.56954 0.196228 7.48641 0.575544 6.46272C1.91211 2.75311 5.42318 0.280722 9.3567 0.279298H27.6425C31.624 0.277066 35.1692 2.80589 36.473 6.57814C36.8348 7.56511 37.0131 8.61019 36.9992 9.66161Z" fill="#A5A6F6"/>
<path d="M36.4732 6.59463L36.2923 6.74303C32.8884 9.39778 21.8708 18.2854 21.8708 18.2854C19.955 19.8476 17.209 19.8476 15.2932 18.2854C15.2932 18.2854 4.34138 9.41427 0.937454 6.75952L0.575684 6.47921C1.90675 2.7631 5.41908 0.283227 9.35684 0.279297H27.6427C31.6285 0.279493 35.175 2.81586 36.4732 6.59463Z" fill="#5D5FEF"/>
</svg>
