<?xml version="1.0" encoding="UTF-8"?>
<svg id="Layer_2" data-name="Layer 2" xmlns="http://www.w3.org/2000/svg" viewBox="0 0 200 200">
  <defs>
    <style>
      .cls-1 {
        fill: #5d5fef;
      }
    </style>
  </defs>
  <path class="cls-1" d="M77.71,8.17h22.29c1.77,0,3.21,1.44,3.21,3.21V76.26c0,.56-.15,1.11-.43,1.6L37.31,191.83l11.5-27.7c.87-2.09-.62-4.39-2.88-4.43-12.87-.23-46.88-6.23-43.02-63.66,.11-1.7,1.57-3.02,3.28-2.98l22.33,.48c1.77,.04,3.18,1.49,3.14,3.27-.23,9.21,.93,35.17,21.07,35.85,28.21,.96,20.73-13.74,21.76-121.27,.02-1.76,1.45-3.2,3.21-3.2Z"/>
  <path class="cls-1" d="M142.09,8.17l-31.79,55.32c-.98,1.71,.25,3.84,2.22,3.84h16.49c1.41,0,2.56,1.14,2.56,2.55l.52,119.39c0,1.41,1.15,2.55,2.56,2.55h25.1c1.42,0,2.56-1.15,2.56-2.56V69.63c0-1.42,1.15-2.56,2.56-2.56h29.95c1.42,0,2.56-1.15,2.56-2.56v-22.12c0-1.42-1.15-2.56-2.56-2.56h-60.92c-1.79,0-3.03-1.79-2.4-3.46l10.57-28.18Z"/>
</svg>