<svg width="29" height="32" viewBox="0 0 29 32" fill="none" xmlns="http://www.w3.org/2000/svg">
<path fill-rule="evenodd" clip-rule="evenodd" d="M25.4263 9.7327C26.3378 10.5927 26.9149 11.7482 27.0548 12.9936L28.3805 25.0504C28.3739 26.6666 27.7263 28.2142 26.5796 29.3532C25.433 30.4922 23.8812 31.1295 22.265 31.1253H20.8486L23.6535 19.04H20.7735L19.4335 25.74L18.6935 29.62H18.6335L17.7735 25.74L16.2135 19.04H12.8935L11.3535 25.74L10.4735 29.62H10.4135L9.67352 25.74L8.35352 19.04H5.35352L8.08915 31.1253H6.11582C4.49961 31.1295 2.94745 30.4922 1.80081 29.3532C0.654174 28.2142 0.00653623 26.6666 0 25.0504L1.32322 12.9964C1.46067 11.7662 2.02454 10.623 2.91733 9.7655C3.81011 8.908 4.97536 8.39033 6.21013 8.30258V7.93242C6.2109 5.82886 7.04684 3.81159 8.53428 2.32416C10.0217 0.836718 12.0388 0.000780659 14.1424 1.08311e-05C15.1844 -0.00120676 16.2164 0.203472 17.1792 0.602232C18.1419 1.00099 19.0165 1.58594 19.7526 2.32362C20.4902 3.05907 21.0752 3.93314 21.474 4.89543C21.8727 5.85772 22.0776 6.88918 22.0764 7.93082V8.29691C23.3278 8.36402 24.5147 8.87272 25.4263 9.7327ZM12.43 31.1253H16.5171L15.1935 25.44L14.5135 22.38H14.4535L13.7535 25.44L12.43 31.1253ZM8.96542 5.80133C8.68401 6.4811 8.5394 7.20965 8.53959 7.94536V8.28521H19.7451V7.94536C19.7456 7.20937 19.6008 6.4805 19.3189 5.80062C19.0371 5.12075 18.6239 4.50322 18.1028 3.9835C17.583 3.46264 16.9652 3.04968 16.2853 2.76807C15.6055 2.48645 14.8768 2.34189 14.1409 2.34259C13.4052 2.34259 12.6766 2.48736 11.9969 2.76895C11.3172 3.05054 10.7 3.46338 10.1798 3.98368C9.65963 4.50397 9.24684 5.12157 8.96542 5.80133ZM9.10583 16.079C9.27665 16.1496 9.4599 16.1859 9.64476 16.1857C9.82988 16.1861 10.0132 16.1499 10.1844 16.0793C10.3556 16.0088 10.511 15.9053 10.6421 15.7746C10.7732 15.6439 10.8774 15.4887 10.9485 15.3177C11.0195 15.1468 11.0561 14.9636 11.0563 14.7785C11.0561 14.5933 11.0195 14.4099 10.9485 14.239C10.8774 14.0681 10.7732 13.9128 10.6421 13.7821C10.511 13.6514 10.3556 13.5479 10.1844 13.4774C10.0132 13.4069 9.82988 13.3708 9.64476 13.3712C9.4599 13.371 9.27665 13.4073 9.10583 13.4779C8.935 13.5486 8.77987 13.6521 8.64915 13.7828C8.51844 13.9136 8.41488 14.0689 8.34423 14.2397C8.27358 14.4105 8.23732 14.5936 8.23751 14.7785C8.23732 14.9633 8.27358 15.1464 8.34423 15.3172C8.41488 15.488 8.51844 15.6432 8.64915 15.7739C8.77987 15.9046 8.935 16.0083 9.10583 16.079ZM18.1992 16.0793C18.3704 16.1499 18.5538 16.1861 18.7389 16.1857C18.9237 16.1859 19.1066 16.1496 19.2775 16.079C19.4483 16.0083 19.6038 15.9046 19.7345 15.7739C19.8652 15.6432 19.9688 15.488 20.0394 15.3172C20.1101 15.1464 20.1463 14.9633 20.1461 14.7785C20.1463 14.5936 20.1101 14.4105 20.0394 14.2397C19.9688 14.0689 19.8652 13.9136 19.7345 13.7828C19.6038 13.6521 19.4483 13.5486 19.2775 13.4779C19.1066 13.4073 18.9237 13.371 18.7389 13.3712C18.5538 13.3708 18.3704 13.4069 18.1992 13.4774C18.0281 13.5479 17.8726 13.6514 17.7415 13.7821C17.6104 13.9128 17.5062 14.0681 17.4352 14.239C17.3641 14.4099 17.3276 14.5933 17.3274 14.7785C17.3276 14.9636 17.3641 15.1468 17.4352 15.3177C17.5062 15.4887 17.6104 15.6439 17.7415 15.7746C17.8726 15.9053 18.0281 16.0088 18.1992 16.0793Z" fill="#5D5FEF"/>
</svg>
